<svg xmlns="http://www.w3.org/2000/svg" viewBox="0 0 1024 1024"><title>church</title><g id="base"><polygon points="348.66 357.27 509.44 227.04 670.22 357.27 670.22 997 348.66 997 348.66 357.27" style="fill:#dde1ed"/><polygon points="99.8 735.39 348.66 612.02 348.66 997 99.8 997 99.8 735.39" style="fill:#caced9"/><path d="M204,760.42h0a47,47,0,0,1,47,47v92.25a0,0,0,0,1,0,0H156.94a0,0,0,0,1,0,0V807.44A47,47,0,0,1,204,760.42Z" style="opacity:0.1"/><polygon points="919.08 735.39 670.22 612.02 670.22 997 919.08 997 919.08 735.39" style="fill:#caced9"/><path d="M767.89,760.42h94.05a0,0,0,0,1,0,0v92.25a47,47,0,0,1-47,47h0a47,47,0,0,1-47-47V760.42A0,0,0,0,1,767.89,760.42Z" transform="translate(1629.83 1660.11) rotate(-180)" style="opacity:0.1"/></g><g id="cor"><polygon points="66.5 682.04 348.66 542.16 348.66 612.02 99.8 735.39 66.5 682.04" style="fill:#4571bf"/><path d="M509.44,244.33,348.66,358.88,289,327.34,493.76,179.67V90h-32a15.67,15.67,0,1,1,0-31.35h32v-32a15.67,15.67,0,1,1,31.35,0v32h32a15.67,15.67,0,0,1,0,31.35h-32v89.67L730.19,327.34l-59.66,31.54Z" style="fill:#4571bf"/><polygon points="952.38 682.04 919.08 735.39 670.21 612.02 670.21 542.16 952.38 682.04" style="fill:#4571bf"/><path d="M592.24,804.43V997H431.86V804.43a80.19,80.19,0,1,1,160.38,0Z" style="fill:#4571bf"/></g><g id="sombra"><polygon points="670.22 997 670.22 542.16 730.51 572.05 730.51 997 670.22 997" style="opacity:0.24"/><polygon points="348.66 997 348.66 542.16 288.37 572.05 288.37 997 348.66 997" style="opacity:0.24"/></g></svg>